#!OML:ASF E:\acrobat2\Project_11_07_03\Capture day 1\Session 1\Acrobat.ASF
:FULLY-SPECIFIED
:DEGREES
337
root 12.5489 14.4193 21.7721 -37.9645 -74.1785 -311.97
lowerback 15.9329 4.54548 5.57679
upperback 9.57762 6.18793 -1.19521
thorax 2.10064 3.21652 -5.19955
lowerneck -0.00620805 5.5072 1.93611
upperneck 2.94916 7.601 -9.78282
head 1.44411 3.70219 -3.38362
rclavicle -2.8625e-014 -2.22639e-014
rhumerus 19.9047 -3.68907 -67.6541
rradius 37.6357
rwrist -23.4182
rhand -11.3533 -47.3088
rfingers 7.12502
rthumb 14.6802 -76.7691
lclavicle -2.8625e-014 -2.22639e-014
lhumerus -31.9476 -12.115 30.1877
lradius 12.7893
lwrist 4.60354
lhand -39.4776 -23.5499
lfingers 7.12502
lthumb -12.4641 6.05844
rfemur -45.3825 -10.6297 -3.98244
rtibia 90.6212
rfoot -26.9377 0.0885814
rtoes -16.202
lfemur -47.4222 -12.6363 2.50411
ltibia 61.1816
lfoot 10.9067 -26.1881
ltoes 58.6148
338
root 12.534 14.3825 21.9807 -41.1068 -75.538 -309.449
lowerback 16.0196 4.65749 5.20266
upperback 9.73836 6.26102 -1.49707
thorax 2.23169 3.2448 -5.31868
lowerneck -0.0423182 5.03962 1.92521
upperneck 2.52841 6.90749 -8.50811
head 1.20907 3.38193 -2.96465
rclavicle -1.27222e-014 -1.59028e-015
rhumerus 16.1752 -5.19616 -68.0023
rradius 36.5053
rwrist -23.7074
rhand -10.0895 -47.855
rfingers 7.12502
rthumb 15.8975 -77.2225
lclavicle -1.27222e-014 -1.59028e-015
lhumerus -29.5449 -17.3786 28.0567
lradius 14.0809
lwrist 8.57096
lhand -39.4678 -21.2087
lfingers 7.12502
lthumb -12.4547 8.4002
rfemur -45.5713 -10.8482 -3.87977
rtibia 91.3311
rfoot -26.0151 -1.45595
rtoes -19.1996
lfemur -45.3928 -11.8131 2.50911
ltibia 60.0855
lfoot 17.9112 -25.4036
ltoes 60.841
339
root 12.5197 14.3597 22.1885 -43.4473 -76.5713 -307.617
lowerback 16.0477 4.57365 5.00044
upperback 9.73843 6.11392 -1.76568
thorax 2.20637 3.16501 -5.47728
lowerneck -0.149924 4.69683 1.5056
upperneck 2.53399 6.41104 -6.93754
head 1.11841 3.14455 -2.37156
rclavicle -5.56597e-015 -2.38542e-014
rhumerus 12.8147 -7.60438 -68.9673
rradius 34.8963
rwrist -23.1065
rhand -9.22343 -47.767
rfingers 7.12502
rthumb 16.7314 -77.066
lclavicle -5.56597e-015 -2.38542e-014
lhumerus -27.0831 -22.0284 25.4853
lradius 15.3818
lwrist 11.467
lhand -38.5687 -21.4395
lfingers 7.12502
lthumb -11.5878 8.22016
rfemur -45.9156 -12.4911 -3.97754
rtibia 91.9579
rfoot -24.9383 -2.98696
rtoes -16.3529
lfemur -43.2887 -11.5459 2.54107
ltibia 58.6568
lfoot 26.4178 -20.058
ltoes 61.6623
340
root 12.5153 14.3615 22.3876 -45.4992 -76.9947 -306.022
lowerback 16.237 4.30597 4.52914
upperback 9.61145 5.70615 -1.9943
thorax 1.88565 2.93106 -5.434
lowerneck 0.315012 4.40794 1.15506
upperneck 1.97578 5.97291 -5.95999
head 0.792453 2.95069 -2.01332
rclavicle 1.51076e-014 -1.27222e-014
rhumerus 8.12671 -5.94566 -67.5429
rradius 34.8836
rwrist -26.709
rhand -9.37674 -48.1243
rfingers 7.12502
rthumb 16.5838 -77.4357
lclavicle 1.51076e-014 -1.27222e-014
lhumerus -25.0684 -27.9551 23.6074
lradius 16.7709
lwrist 13.967
lhand -39.1698 -19.0743
lfingers 7.12502
lthumb -12.1674 10.5519
rfemur -45.8389 -13.7783 -4.54574
rtibia 92.2564
rfoot -23.9785 -3.69093
rtoes -13.7897
lfemur -41.3236 -11.574 1.98971
ltibia 58.1053
lfoot 25.1415 -25.0834
ltoes 61.6606
341
root 12.5217 14.3884 22.5764 -47.2198 -76.8542 -304.641
lowerback 16.5281 3.85039 3.67398
upperback 9.4169 5.00482 -2.15606
thorax 1.35908 2.52635 -5.0723
lowerneck 0.124849 4.06188 -0.343248
upperneck 1.89681 5.48074 -4.22372
head 0.676405 2.70512 -1.20606
rclavicle 3.97569e-015 -1.90833e-014
rhumerus 5.05228 -10.163 -68.8302
rradius 32.9349
rwrist -23.6264
rhand -20.2254 -52.87
rfingers 7.12502
rthumb 6.12222 -82.7615
lclavicle 3.97569e-015 -1.90833e-014
lhumerus -22.4051 -30.7116 20.9146
lradius 17.7485
lwrist 14.4996
lhand -38.1737 -18.1428
lfingers 7.12502
lthumb -11.2068 11.5379
rfemur -45.4586 -14.9862 -5.5693
rtibia 92.1936
rfoot -23.0947 -4.0483
rtoes -11.6572
lfemur -41.9215 -11.5594 0.729494
ltibia 60.7724
lfoot 1.30226 -36.5704
ltoes 47.7683
